<?xml version="1.0" encoding="UTF-8"?>
<svg version="1.1" xmlns="http://www.w3.org/2000/svg" width="225" height="225">
<path d="M0 0 C74.25 0 148.5 0 225 0 C225 74.25 225 148.5 225 225 C150.75 225 76.5 225 0 225 C0 150.75 0 76.5 0 0 Z " fill="#FCFCFC" transform="translate(0,0)"/>
<path d="M0 0 C3.79782446 0.63297074 4.71657302 1.41646985 7 4.5 C7.41780431 7.4470526 7.60478118 10.03551763 7.609375 12.984375 C7.62591125 13.79996887 7.64244751 14.61556274 7.65948486 15.45587158 C7.70796583 18.05399097 7.72933523 20.65152509 7.75 23.25 C7.77815972 25.01435236 7.80808716 26.77867746 7.83984375 28.54296875 C7.91372442 32.86193097 7.96329812 37.18056829 8 41.5 C8.15557373 40.55680908 8.31114746 39.61361816 8.47143555 38.6418457 C9.05697419 35.12518301 9.66896071 31.61354499 10.28881836 28.1027832 C10.55283333 26.58611176 10.80977203 25.06819007 11.05932617 23.54907227 C11.42048528 21.35842331 11.80733225 19.17361614 12.19921875 16.98828125 C12.35737312 15.97704948 12.35737312 15.97704948 12.51872253 14.94538879 C13.43001992 10.07268195 15.15461303 7.58235269 19 4.5 C22.0625 3.9375 22.0625 3.9375 25 4.5 C27.1875 6.03125 27.1875 6.03125 29 8.5 C29.22054506 11.36087328 29.19329278 13.73692342 28.9375 16.5625 C28.85157593 17.78706909 28.85157593 17.78706909 28.76391602 19.03637695 C28.11077734 27.60793144 27.0354207 36.14223527 26.02392578 44.67724609 C25.03193571 53.34260758 24.63962774 61.78433015 25 70.5 C28.59983306 69.25508329 30.77990175 68.02174766 33.3125 65.1875 C37.84182871 60.50131142 42.46675634 56.28945196 49.25 56 C54.79104478 56.73880597 54.79104478 56.73880597 57 59.5 C57.39453125 62.28125 57.39453125 62.28125 57 65.5 C54.98046875 68.1484375 54.98046875 68.1484375 52.1875 70.875 C47.66274601 75.47047629 43.93007936 80.24720801 40.375 85.625 C36.05917114 92.10750136 31.39487737 97.86513698 26 103.5 C20.34645844 109.45938889 15.57614506 115.06018063 12 122.5 C12.76699219 122.45359375 13.53398437 122.4071875 14.32421875 122.359375 C37.33040407 121.61120637 65.74866878 128.03361231 84.0625 142.5 C88.36449682 146.54516119 90.66658106 150.43280259 91.625 156.375 C91.23555833 162.66691692 87.41172108 167.33563493 82.8671875 171.4140625 C76.19538077 176.41241275 68.75688287 179.56009854 61 182.5 C59.54400391 183.05494141 59.54400391 183.05494141 58.05859375 183.62109375 C41.98783579 189.12067404 23.61121152 191.61268416 6.65625 191.703125 C5.7775827 191.71009399 4.89891541 191.71706299 3.99362183 191.72424316 C1.16236559 191.74158929 -1.66869278 191.74796614 -4.5 191.75 C-5.46508484 191.75100708 -6.43016968 191.75201416 -7.42449951 191.75305176 C-22.1475922 191.74264653 -36.49789529 191.28388617 -51 188.5 C-51.78890625 188.35014648 -52.5778125 188.20029297 -53.390625 188.04589844 C-70.30506906 184.70416054 -91.42114835 179.5842386 -101.875 164.6875 C-104.18326522 160.6724719 -105.17885581 157.06053709 -104 152.5 C-98.9161692 141.06632607 -87.60528911 135.63392692 -76.5625 131.13671875 C-68.30535994 128.01471601 -59.62388349 126.28470096 -51 124.5 C-49.91460937 124.26410156 -48.82921875 124.02820313 -47.7109375 123.78515625 C-40.53692326 122.3355398 -33.29798501 121.90485172 -26 121.5 C-23.3496228 110.40264881 -23.3496228 110.40264881 -25.859375 99.69921875 C-28.46520777 93.98878505 -29.30844651 88.13283863 -30.29559326 81.97042847 C-32.58626317 67.83359544 -36.1568811 54.42754436 -40.74853516 40.87084961 C-40.9634259 40.22672119 -41.17831665 39.58259277 -41.39971924 38.91894531 C-41.98146843 37.18377402 -42.57876328 35.45383621 -43.17724609 33.72436523 C-44.08492882 30.16716471 -44.25603875 27.15702198 -44 23.5 C-42.375 21.5 -42.375 21.5 -40 20.5 C-37.04730259 20.62051826 -34.94368069 20.81707318 -32.515625 22.57421875 C-30.24139141 25.46390216 -29.10059402 28.78120691 -27.8125 32.1875 C-27.53986328 32.88939453 -27.26722656 33.59128906 -26.98632812 34.31445312 C-26.31714455 36.04024235 -25.65761525 37.76976959 -25 39.5 C-25.15146484 38.73856689 -25.30292969 37.97713379 -25.45898438 37.19262695 C-26.14421445 33.73353282 -26.82217858 30.27305316 -27.5 26.8125 C-27.85771484 25.01522461 -27.85771484 25.01522461 -28.22265625 23.18164062 C-28.44824219 22.02470703 -28.67382812 20.86777344 -28.90625 19.67578125 C-29.22045898 18.08117065 -29.22045898 18.08117065 -29.54101562 16.4543457 C-30.63851729 9.3900544 -30.63851729 9.3900544 -27.9375 5.625 C-25 3.5 -25 3.5 -21.4375 3.375 C-17.14368056 4.78025 -16.3573968 5.64629146 -14 9.5 C-12.80254852 13.55279818 -12.02170007 17.66036534 -11.25 21.8125 C-10.91935547 23.49569336 -10.91935547 23.49569336 -10.58203125 25.21289062 C-10.04174912 27.97302759 -9.51491416 30.73503812 -9 33.5 C-8.96036133 32.64245117 -8.92072266 31.78490234 -8.87988281 30.90136719 C-8.72337276 27.7097726 -8.54999064 24.51966426 -8.36523438 21.32958984 C-8.28882808 19.95071528 -8.21909114 18.57145388 -8.15625 17.19189453 C-8.06457654 15.20515883 -7.94665125 13.21968966 -7.828125 11.234375 C-7.7652832 10.04038086 -7.70244141 8.84638672 -7.63769531 7.61621094 C-6.67466813 2.91020829 -4.74916656 0.79152776 0 0 Z " fill="#0A0A0A" transform="translate(119,16.5)"/>
<path d="M0 0 C0 1.98 0 3.96 0 6 C-6.40372758 7.12095045 -12.79382473 8.10657106 -19.25 8.875 C-33.49721685 10.74540385 -48.62379985 13.75683738 -60 23 C-62.24496621 26.36744931 -62.29698531 28.06998926 -61.6484375 32.01171875 C-60.16759942 36.5523608 -56.34877353 38.3116052 -52.3671875 40.34375 C-44.92665121 43.83086782 -38.16847317 46.15498553 -30 47 C-30 45.68 -30 44.36 -30 43 C-31.051875 42.938125 -32.10375 42.87625 -33.1875 42.8125 C-42.73614743 41.58918574 -51.21696762 37.78303238 -58 31 C-58 28.28799027 -57.4888853 26.55252717 -55.6796875 24.5078125 C-42.41364676 13.42406418 -18.70957161 10.46226647 -2 11 C-3.91072224 19.16399501 -6.23522439 27.0846018 -9 35 C-19.14387142 34.05997319 -27.60695648 32.11998323 -37 28 C-37.77988281 27.67257813 -38.55976562 27.34515625 -39.36328125 27.0078125 C-40.91566848 26.35450325 -42.45943338 25.68071548 -44 25 C-43.65330052 27.59749455 -43.38059102 28.70312174 -41.27734375 30.34375 C-33.52288594 34.17566905 -25.45761368 36.33352765 -17 38 C-16.13431396 38.17950195 -15.26862793 38.35900391 -14.37670898 38.54394531 C-3.54429526 40.51909634 7.33525839 40.39582383 18.3125 40.375 C19.33479706 40.37478851 20.35709412 40.37457703 21.41036987 40.37435913 C51.21220039 40.61475401 51.21220039 40.61475401 79 31 C79.33 30.01 79.66 29.02 80 28 C76.11496654 28.42000362 72.84259038 29.42467846 69.25 30.875 C57.79700245 35.15620236 45.16694967 36.64413263 33 36 C32.89905696 27.58807963 32.89897358 19.35600408 34 11 C44.31608376 10.27915564 54.0196015 11.41128596 64.1875 13.1875 C65.34991211 13.3836792 66.51232422 13.5798584 67.70996094 13.78198242 C78.79432774 15.82058561 90.80144538 18.80144538 99 27 C99.125 29.25 99.125 29.25 98 32 C89.41160786 41.59879121 73.05497025 43.71531381 61 46 C61 46.66 61 47.32 61 48 C74.58071049 47.95201162 90.65189953 44.3612244 101 35 C102.61469808 31.77060384 102.57863559 28.4919985 102 25 C93.15439957 12.83729941 72.49813924 10.84183597 58.70068359 8.42285156 C51.17802147 7.24501294 43.58605435 6.61334056 36 6 C36.33 4.02 36.66 2.04 37 0 C60.67870272 -0.76520045 91.48992069 4.8799905 109.4765625 21.38671875 C111.96995406 24.02715648 112.962886 25.67215965 113.375 29.3125 C112.85767184 34.39956023 111.08951891 37.1126926 107.3046875 40.53125 C94.80692397 50.44850365 78.75120503 55.09189658 63.21899414 57.63574219 C61.5838681 57.90415544 59.95329705 58.20068257 58.32592773 58.51269531 C47.15653956 60.43161594 35.97759329 60.37219284 24.6730957 60.37060547 C21.23271812 60.37494299 17.79366446 60.41126053 14.35351562 60.44921875 C-12.89541009 60.58691535 -47.25617318 58.06883356 -68.546875 38.67578125 C-70.97715843 35.87311568 -71.9128289 33.44457261 -72.625 29.8125 C-71.64558248 23.83805313 -68.61891964 20.77439144 -64 17 C-46.37926581 5.42917105 -20.87241867 -0.78929314 0 0 Z " fill="#F6F6F6" transform="translate(92,143)"/>
<path d="M0 0 C2.475 0.495 2.475 0.495 5 1 C5.33 15.19 5.66 29.38 6 44 C10.60532389 45.45314664 10.60532389 45.45314664 13 44 C13.72388967 41.03752716 14.33028037 38.12151268 14.875 35.125 C15.22036137 33.30970667 15.56674323 31.49460724 15.9140625 29.6796875 C16.09098633 28.74479492 16.26791016 27.80990234 16.45019531 26.84667969 C17.32781992 22.30267307 18.2871372 17.77658184 19.25 13.25 C19.42515137 12.42258301 19.60030273 11.59516602 19.78076172 10.74267578 C20.18618587 8.82824089 20.59293193 6.91408601 21 5 C22.65 4.67 24.3 4.34 26 4 C26.31460491 15.10730107 25.219623 25.64136246 23.70898438 36.61376953 C20.43180057 54.00420299 20.43180057 54.00420299 25 70 C32.82677088 70.17014719 36.61445241 65.11670383 42 60 C47.87891441 54.92844135 47.87891441 54.92844135 51.9375 55.1875 C52.618125 55.455625 53.29875 55.72375 54 56 C52.48997137 59.41125639 50.48673079 61.92684516 48.0625 64.75 C44.2619966 69.29724768 40.94937654 73.99455209 37.6875 78.9375 C33.71289813 84.91171134 29.39373689 89.89356765 24.21533203 94.84130859 C6.16376503 112.20429231 4.62146393 134.37960798 3 158 C-0.83331699 158.02929981 -4.66660471 158.04689897 -8.5 158.0625 C-9.57765625 158.07087891 -10.6553125 158.07925781 -11.765625 158.08789062 C-17.61328382 158.10571885 -23.21863671 157.89105963 -29 157 C-28.3721305 151.33404509 -26.92293056 146.23024723 -25.1875 140.8125 C-19.80153547 123.33493133 -14.28260671 104.95682264 -20.95019531 87.19750977 C-22.93541247 81.74089329 -23.84268728 76.35701424 -24.6875 70.625 C-26.49205842 58.71471031 -29.98041456 47.44803745 -33.6472168 36.00634766 C-33.86691635 35.31406067 -34.08661591 34.62177368 -34.31297302 33.9085083 C-34.91634667 32.01392109 -35.530579 30.12280192 -36.14550781 28.23193359 C-36.92010584 25.30218253 -37.1858169 23.00498551 -37 20 C-36.01 20 -35.02 20 -34 20 C-32.28651265 24.09155867 -30.57763792 28.18500311 -28.87304688 32.28027344 C-28.2922869 33.67370761 -27.71026074 35.06661475 -27.12695312 36.45898438 C-26.28964617 38.45826832 -25.45688311 40.45939176 -24.625 42.4609375 C-24.12226562 43.66540527 -23.61953125 44.86987305 -23.1015625 46.11083984 C-22 49 -22 49 -22 51 C-20.02 50.34 -18.04 49.68 -16 49 C-17.17906588 39.00433702 -19.12762733 29.25799219 -21.32299805 19.44140625 C-22.47075737 14.17294655 -23.28827385 9.39375548 -23 4 C-21.35 3.67 -19.7 3.34 -18 3 C-15.37334313 10.20161479 -13.71939647 17.44887011 -12.21020508 24.95922852 C-11.80815832 26.95909644 -11.39790251 28.95715131 -10.98632812 30.95507812 C-9 40.69754464 -9 40.69754464 -9 43 C-7.33388095 43.042721 -5.66617115 43.04063832 -4 43 C-2.08717016 41.08717016 -2.63470377 37.61600852 -2.5 35 C-2.4390918 33.93543579 -2.4390918 33.93543579 -2.37695312 32.84936523 C-2.24688767 30.56646643 -2.1230313 28.28328787 -2 26 C-1.83643301 23.02065282 -1.6699146 20.04149195 -1.5 17.0625 C-1.4594751 16.35037354 -1.4189502 15.63824707 -1.37719727 14.90454102 C-1.08166168 9.90852665 -0.63175653 4.96380134 0 0 Z " fill="#F8F8F8" transform="translate(117,22)"/>
</svg>
